<?xml version="1.0" encoding="UTF-8" standalone="no"?>
<!DOCTYPE svg PUBLIC "-//W3C//DTD SVG 1.1//EN" "http://www.w3.org/Graphics/SVG/1.1/DTD/svg11.dtd">
<svg width="100%" height="100%" viewBox="0 0 3538 5003" version="1.1" xmlns="http://www.w3.org/2000/svg" xmlns:xlink="http://www.w3.org/1999/xlink" xml:space="preserve" xmlns:serif="http://www.serif.com/" style="fill-rule:evenodd;clip-rule:evenodd;stroke-linecap:round;stroke-miterlimit:10;">
    <g transform="matrix(1,0,0,1,4655.21,8.96732)">
        <g>
            <g transform="matrix(8.33333,0,0,8.33333,-4634.28,11.9666)">
                <g>
                    <g transform="matrix(1,0,0,-1,0,595.276)">
                        <g>
                            <rect x="0" y="0" width="419.528" height="595.276" style="fill:rgb(255,212,255);"/>
                        </g>
                    </g>
                    <g transform="matrix(0,1,1,0,318.904,297.638)">
                        <path d="M-297.638,-297.638L297.638,-297.638" style="fill:none;fill-rule:nonzero;stroke:white;stroke-width:0.5px;"/>
                    </g>
                    <g transform="matrix(0,1,1,0,339.421,297.638)">
                        <path d="M-297.638,-297.638L297.638,-297.638" style="fill:none;fill-rule:nonzero;stroke:white;stroke-width:0.5px;"/>
                    </g>
                    <g transform="matrix(0,1,1,0,359.939,297.638)">
                        <path d="M-297.638,-297.638L297.638,-297.638" style="fill:none;fill-rule:nonzero;stroke:white;stroke-width:0.5px;"/>
                    </g>
                    <g transform="matrix(0,1,1,0,380.457,297.638)">
                        <path d="M-297.638,-297.638L297.638,-297.638" style="fill:none;fill-rule:nonzero;stroke:white;stroke-width:0.5px;"/>
                    </g>
                    <g transform="matrix(0,1,1,0,400.974,297.638)">
                        <path d="M-297.638,-297.638L297.638,-297.638" style="fill:none;fill-rule:nonzero;stroke:white;stroke-width:0.5px;"/>
                    </g>
                    <g transform="matrix(0,1,1,0,421.492,297.638)">
                        <path d="M-297.638,-297.638L297.638,-297.638" style="fill:none;fill-rule:nonzero;stroke:white;stroke-width:0.5px;"/>
                    </g>
                    <g transform="matrix(0,1,1,0,442.01,297.638)">
                        <path d="M-297.638,-297.638L297.638,-297.638" style="fill:none;fill-rule:nonzero;stroke:white;stroke-width:0.5px;"/>
                    </g>
                    <g transform="matrix(0,1,1,0,462.528,297.638)">
                        <path d="M-297.638,-297.638L297.638,-297.638" style="fill:none;fill-rule:nonzero;stroke:white;stroke-width:0.5px;"/>
                    </g>
                    <g transform="matrix(0,1,1,0,483.045,297.638)">
                        <path d="M-297.638,-297.638L297.638,-297.638" style="fill:none;fill-rule:nonzero;stroke:white;stroke-width:0.5px;"/>
                    </g>
                    <g transform="matrix(0,1,1,0,503.563,297.638)">
                        <path d="M-297.638,-297.638L297.638,-297.638" style="fill:none;fill-rule:nonzero;stroke:white;stroke-width:0.5px;"/>
                    </g>
                    <g transform="matrix(0,1,1,0,524.081,297.638)">
                        <path d="M-297.638,-297.638L297.638,-297.638" style="fill:none;fill-rule:nonzero;stroke:white;stroke-width:0.5px;"/>
                    </g>
                    <g transform="matrix(0,1,1,0,544.598,297.638)">
                        <path d="M-297.638,-297.638L297.638,-297.638" style="fill:none;fill-rule:nonzero;stroke:white;stroke-width:0.5px;"/>
                    </g>
                    <g transform="matrix(0,1,1,0,565.116,297.638)">
                        <path d="M-297.638,-297.638L297.638,-297.638" style="fill:none;fill-rule:nonzero;stroke:white;stroke-width:0.5px;"/>
                    </g>
                    <g transform="matrix(0,1,1,0,585.634,297.638)">
                        <path d="M-297.638,-297.638L297.638,-297.638" style="fill:none;fill-rule:nonzero;stroke:white;stroke-width:0.5px;"/>
                    </g>
                    <g transform="matrix(0,1,1,0,606.151,297.638)">
                        <path d="M-297.638,-297.638L297.638,-297.638" style="fill:none;fill-rule:nonzero;stroke:white;stroke-width:0.5px;"/>
                    </g>
                    <g transform="matrix(0,1,1,0,626.669,297.638)">
                        <path d="M-297.638,-297.638L297.638,-297.638" style="fill:none;fill-rule:nonzero;stroke:white;stroke-width:0.5px;"/>
                    </g>
                    <g transform="matrix(0,1,1,0,647.187,297.638)">
                        <path d="M-297.638,-297.638L297.638,-297.638" style="fill:none;fill-rule:nonzero;stroke:white;stroke-width:0.5px;"/>
                    </g>
                    <g transform="matrix(0,1,1,0,667.704,297.638)">
                        <path d="M-297.638,-297.638L297.638,-297.638" style="fill:none;fill-rule:nonzero;stroke:white;stroke-width:0.5px;"/>
                    </g>
                    <g transform="matrix(0,1,1,0,688.222,297.638)">
                        <path d="M-297.638,-297.638L297.638,-297.638" style="fill:none;fill-rule:nonzero;stroke:white;stroke-width:0.5px;"/>
                    </g>
                    <g transform="matrix(0,1,1,0,708.74,297.638)">
                        <path d="M-297.638,-297.638L297.638,-297.638" style="fill:none;fill-rule:nonzero;stroke:white;stroke-width:0.5px;"/>
                    </g>
                    <g transform="matrix(1,0,0,1,0,21.0819)">
                        <path d="M0,0L419.528,0" style="fill:none;fill-rule:nonzero;stroke:white;stroke-width:0.5px;"/>
                    </g>
                    <g transform="matrix(1,0,0,1,0,41.5513)">
                        <path d="M0,0L419.528,0" style="fill:none;fill-rule:nonzero;stroke:white;stroke-width:0.5px;"/>
                    </g>
                    <g transform="matrix(1,0,0,1,0,62.0206)">
                        <path d="M0,0L419.528,0" style="fill:none;fill-rule:nonzero;stroke:white;stroke-width:0.5px;"/>
                    </g>
                    <g transform="matrix(1,0,0,1,0,82.49)">
                        <path d="M0,0L419.528,0" style="fill:none;fill-rule:nonzero;stroke:white;stroke-width:0.5px;"/>
                    </g>
                    <g transform="matrix(1,0,0,1,0,102.959)">
                        <path d="M0,0L419.528,0" style="fill:none;fill-rule:nonzero;stroke:white;stroke-width:0.5px;"/>
                    </g>
                    <g transform="matrix(1,0,0,1,0,123.429)">
                        <path d="M0,0L419.528,0" style="fill:none;fill-rule:nonzero;stroke:white;stroke-width:0.5px;"/>
                    </g>
                    <g transform="matrix(1,0,0,1,0,143.898)">
                        <path d="M0,0L419.528,0" style="fill:none;fill-rule:nonzero;stroke:white;stroke-width:0.5px;"/>
                    </g>
                    <g transform="matrix(1,0,0,1,0,164.367)">
                        <path d="M0,0L419.528,0" style="fill:none;fill-rule:nonzero;stroke:white;stroke-width:0.5px;"/>
                    </g>
                    <g transform="matrix(1,0,0,1,0,184.837)">
                        <path d="M0,0L419.528,0" style="fill:none;fill-rule:nonzero;stroke:white;stroke-width:0.5px;"/>
                    </g>
                    <g transform="matrix(1,0,0,1,0,205.306)">
                        <path d="M0,0L419.528,0" style="fill:none;fill-rule:nonzero;stroke:white;stroke-width:0.5px;"/>
                    </g>
                    <g transform="matrix(1,0,0,1,0,225.776)">
                        <path d="M0,0L419.528,0" style="fill:none;fill-rule:nonzero;stroke:white;stroke-width:0.5px;"/>
                    </g>
                    <g transform="matrix(1,0,0,1,0,246.245)">
                        <path d="M0,0L419.528,0" style="fill:none;fill-rule:nonzero;stroke:white;stroke-width:0.5px;"/>
                    </g>
                    <g transform="matrix(1,0,0,1,0,266.714)">
                        <path d="M0,0L419.528,0" style="fill:none;fill-rule:nonzero;stroke:white;stroke-width:0.5px;"/>
                    </g>
                    <g transform="matrix(1,0,0,1,0,287.184)">
                        <path d="M0,0L419.528,0" style="fill:none;fill-rule:nonzero;stroke:white;stroke-width:0.5px;"/>
                    </g>
                    <g transform="matrix(1,0,0,1,0,307.653)">
                        <path d="M0,0L419.528,0" style="fill:none;fill-rule:nonzero;stroke:white;stroke-width:0.5px;"/>
                    </g>
                    <g transform="matrix(1,0,0,1,0,328.122)">
                        <path d="M0,0L419.528,0" style="fill:none;fill-rule:nonzero;stroke:white;stroke-width:0.5px;"/>
                    </g>
                    <g transform="matrix(1,0,0,1,0,348.592)">
                        <path d="M0,0L419.528,0" style="fill:none;fill-rule:nonzero;stroke:white;stroke-width:0.5px;"/>
                    </g>
                    <g transform="matrix(1,0,0,1,0,369.061)">
                        <path d="M0,0L419.528,0" style="fill:none;fill-rule:nonzero;stroke:white;stroke-width:0.5px;"/>
                    </g>
                    <g transform="matrix(1,0,0,1,0,389.53)">
                        <path d="M0,0L419.528,0" style="fill:none;fill-rule:nonzero;stroke:white;stroke-width:0.5px;"/>
                    </g>
                    <g transform="matrix(1,0,0,1,0,410)">
                        <path d="M0,0L419.528,0" style="fill:none;fill-rule:nonzero;stroke:white;stroke-width:0.5px;"/>
                    </g>
                    <g transform="matrix(1,0,0,1,0,430.469)">
                        <path d="M0,0L419.528,0" style="fill:none;fill-rule:nonzero;stroke:white;stroke-width:0.5px;"/>
                    </g>
                    <g transform="matrix(1,0,0,1,0,450.939)">
                        <path d="M0,0L419.528,0" style="fill:none;fill-rule:nonzero;stroke:white;stroke-width:0.5px;"/>
                    </g>
                    <g transform="matrix(1,0,0,1,0,471.408)">
                        <path d="M0,0L419.528,0" style="fill:none;fill-rule:nonzero;stroke:white;stroke-width:0.5px;"/>
                    </g>
                    <g transform="matrix(1,0,0,1,0,491.877)">
                        <path d="M0,0L419.528,0" style="fill:none;fill-rule:nonzero;stroke:white;stroke-width:0.5px;"/>
                    </g>
                    <g transform="matrix(1,0,0,1,0,512.346)">
                        <path d="M0,0L419.528,0" style="fill:none;fill-rule:nonzero;stroke:white;stroke-width:0.5px;"/>
                    </g>
                    <g transform="matrix(1,0,0,1,0,532.816)">
                        <path d="M0,0L419.528,0" style="fill:none;fill-rule:nonzero;stroke:white;stroke-width:0.5px;"/>
                    </g>
                    <g transform="matrix(1,0,0,1,0,553.285)">
                        <path d="M0,0L419.528,0" style="fill:none;fill-rule:nonzero;stroke:white;stroke-width:0.5px;"/>
                    </g>
                    <g transform="matrix(1,0,0,1,0,573.755)">
                        <path d="M0,0L419.528,0" style="fill:none;fill-rule:nonzero;stroke:white;stroke-width:0.5px;"/>
                    </g>
                </g>
            </g>
            <g transform="matrix(8.33333,0,0,8.33333,-4634.28,11.9666)">
                <g transform="matrix(0,-1,-1,0,205.925,42.8711)">
                    <path d="M-19.15,-19.15C-19.885,-1.332 -20.481,-0.736 -38.299,-0.001C-20.481,0.735 -19.885,1.331 -19.15,19.15C-18.415,1.331 -17.819,0.735 -0.001,-0.001C-17.819,-0.736 -18.415,-1.332 -19.15,-19.15" style="fill:white;"/>
                </g>
                <g transform="matrix(0,-1,-1,0,390.584,390.997)">
                    <path d="M-19.15,-19.15C-19.885,-1.332 -20.481,-0.736 -38.299,-0.001C-20.481,0.735 -19.885,1.331 -19.15,19.15C-18.415,1.331 -17.819,0.735 -0.001,-0.001C-17.819,-0.736 -18.415,-1.332 -19.15,-19.15" style="fill:white;"/>
                </g>
                <g transform="matrix(0,-1,-1,0,226.442,33.2628)">
                    <path d="M-8.289,-8.289C-8.607,-0.577 -8.865,-0.319 -16.577,-0.001C-8.865,0.317 -8.607,0.575 -8.289,8.289C-7.971,0.575 -7.713,0.317 -0.001,-0.001C-7.713,-0.319 -7.971,-0.577 -8.289,-8.289" style="fill:white;"/>
                </g>
                <g transform="matrix(0,-1,-1,0,246.96,442.65)">
                    <path d="M-8.289,-8.289C-8.607,-0.577 -8.865,-0.319 -16.577,-0.001C-8.865,0.317 -8.607,0.575 -8.289,8.289C-7.971,0.575 -7.713,0.317 -0.001,-0.001C-7.713,-0.319 -7.971,-0.577 -8.289,-8.289" style="fill:white;"/>
                </g>
                <g transform="matrix(0,-1,-1,0,21.2655,33.2628)">
                    <path d="M-8.289,-8.289C-8.607,-0.577 -8.865,-0.319 -16.577,-0.001C-8.865,0.318 -8.607,0.575 -8.289,8.289C-7.971,0.575 -7.713,0.318 -0.001,-0.001C-7.713,-0.319 -7.971,-0.577 -8.289,-8.289" style="fill:white;"/>
                </g>
                <g transform="matrix(0,-1,-1,0,21.2657,417.177)">
                    <path d="M-13.292,-13.292C-13.802,-0.924 -14.216,-0.51 -26.584,0C-14.216,0.51 -13.802,0.924 -13.292,13.292C-12.782,0.924 -12.368,0.51 0,0C-12.368,-0.51 -12.782,-0.924 -13.292,-13.292" style="fill:white;"/>
                </g>
                <g transform="matrix(0,-1,-1,0,390.584,522.848)">
                    <path d="M-9.968,-9.968C-10.351,-0.692 -10.66,-0.382 -19.935,0.001C-10.66,0.383 -10.351,0.694 -9.968,9.968C-9.584,0.694 -9.275,0.383 0.001,0.001C-9.275,-0.382 -9.584,-0.692 -9.968,-9.968" style="fill:white;"/>
                </g>
                <g transform="matrix(0,-1,-1,0,226.443,355.061)">
                    <path d="M-14.011,-14.011C-14.549,-0.974 -14.985,-0.538 -28.022,0C-14.985,0.538 -14.549,0.974 -14.011,14.011C-13.473,0.974 -13.037,0.538 0,0C-13.037,-0.538 -13.473,-0.974 -14.011,-14.011" style="fill:white;"/>
                </g>
                <g transform="matrix(0,-1,-1,0,390.584,130.236)">
                    <path d="M-14.011,-14.011C-14.549,-0.974 -14.985,-0.538 -28.022,0C-14.985,0.538 -14.549,0.974 -14.011,14.011C-13.473,0.974 -13.037,0.538 0,0C-13.037,-0.538 -13.473,-0.974 -14.011,-14.011" style="fill:white;"/>
                </g>
                <g transform="matrix(0,-1,-1,0,205.763,217.487)">
                    <path d="M-8.289,-8.289C-8.607,-0.577 -8.865,-0.319 -16.577,-0.001C-8.865,0.317 -8.607,0.575 -8.289,8.289C-7.971,0.575 -7.713,0.317 -0.001,-0.001C-7.713,-0.319 -7.971,-0.577 -8.289,-8.289" style="fill:white;"/>
                </g>
            </g>
        </g>
    </g>
</svg>
